#N canvas 546 69 690 654 10;
#X obj 103 121 bng 15 250 50 0 empty empty OPEN 17 7 0 14 -262144 -1
-1;
#X obj 31 584 outlet~;
#X obj 93 582 outlet~;
#X msg 59 506 0;
#X msg 48 484 1;
#X obj 33 528 *~;
#X msg 118 506 0;
#X msg 103 485 1;
#X obj 88 528 *~;
#X msg 440 162 start;
#X obj 415 60 bng 15 250 50 0 empty empty empty 17 7 0 10 -262144 -1
-1;
#X obj 415 85 openpanel;
#X msg 456 185 stop;
#X obj 372 240 readsf~ 2;
#X msg 415 110 open \$1;
#X obj 341 108 symbol;
#X obj 343 44 bng 15 250 50 0 empty empty Replay 17 7 0 14 -262144
-1 -1;
#X obj 343 83 t b b;
#X floatatom 440 431 10 0 0 0 - - -;
#X obj 440 327 tgl 15 0 empty empty empty 17 7 0 10 -262144 -1 -1 0
1;
#X obj 440 403 f;
#X msg 504 346 0;
#X obj 440 454 s tracktime;
#X obj 488 407 + 0.1;
#X obj 440 347 metro 100;
#X obj 440 137 r b;
#X obj 103 139 bng 15 250 50 0 empty empty START 17 7 0 14 -262144
-1 -1;
#X obj 103 158 bng 15 250 50 0 empty empty STOP 17 7 0 14 -262144 -1
-1;
#X obj 107 226 hsl 70 20 0 1 0 0 empty empty RMSVOLUME 5 10 0 10 -262144
-1 -1 0 1;
#X obj 103 176 bng 15 250 50 0 empty empty REPLAY 17 7 0 14 -262144
-1 -1;
#X obj 104 207 nbx 8 14 -1e+37 1e+37 0 0 empty empty empty 0 -8 0 10
-262144 -1 -1 0 256;
#X text 37 431 VOLUME;
#X text 438 285 TRACK TIME;
#X text 344 28 OPEN AND REPLAY;
#X obj 191 594 outlet~;
#X obj 253 592 outlet~;
#X text 19 14 outlets 1/2: L/R channel w/ volume control;
#X text 19 27 outlets 3/4: L/R channel w/out volume control;
#X obj 58 57 inlet;
#X obj 105 57 inlet;
#X obj 151 58 inlet;
#X msg 469 302 0;
#X msg 440 300 1;
#X obj 437 229 t b b b;
#X obj 425 582 outlet;
#X obj 421 265 t b b;
#X obj 17 54 inlet;
#X obj 472 39 inlet;
#X connect 0 0 10 0;
#X connect 3 0 5 1;
#X connect 4 0 5 1;
#X connect 5 0 1 0;
#X connect 6 0 8 1;
#X connect 7 0 8 1;
#X connect 8 0 2 0;
#X connect 9 0 13 0;
#X connect 9 0 43 0;
#X connect 10 0 11 0;
#X connect 11 0 14 0;
#X connect 11 0 15 1;
#X connect 12 0 13 0;
#X connect 12 0 41 0;
#X connect 13 0 5 0;
#X connect 13 0 34 0;
#X connect 13 1 8 0;
#X connect 13 1 35 0;
#X connect 13 2 45 0;
#X connect 14 0 13 0;
#X connect 15 0 14 0;
#X connect 16 0 17 0;
#X connect 17 0 9 0;
#X connect 17 1 15 0;
#X connect 18 0 22 0;
#X connect 18 0 30 0;
#X connect 19 0 24 0;
#X connect 20 0 18 0;
#X connect 20 0 23 0;
#X connect 21 0 20 0;
#X connect 23 0 20 1;
#X connect 24 0 20 0;
#X connect 25 0 9 0;
#X connect 26 0 9 0;
#X connect 27 0 12 0;
#X connect 28 0 8 1;
#X connect 28 0 5 1;
#X connect 29 0 16 0;
#X connect 38 0 26 0;
#X connect 39 0 27 0;
#X connect 40 0 29 0;
#X connect 41 0 19 0;
#X connect 42 0 19 0;
#X connect 43 0 42 0;
#X connect 43 1 41 0;
#X connect 43 2 21 0;
#X connect 45 0 44 0;
#X connect 45 1 41 0;
#X connect 46 0 0 0;
#X connect 47 0 14 0;
#X coords 0 -1 1 1 85 150 1 100 100;
